<?xml version="1.0" encoding="utf-8"?><svg version="1.1" id="Layer_1"
                                                        xmlns="http://www.w3.org/2000/svg"
                                                        xmlns:xlink="http://www.w3.org/1999/xlink" x="0px" y="0px"
                                                        viewBox="0 0 100.45 122.88" width="1.5rem" height="1.5rem"
                                                        stroke="black" stroke-width="5"
                                                        style="enable-background:new 0 0 100.45 122.88"
                                                        xml:space="preserve">
                                                        <g>
                                                            <path
                                                                d="M24.64,0.78l-8.37,6.42c-0.87,0.67-1.45,1.63-1.65,2.64c-0.19,1.01,0,2.07,0.66,2.97l0.6,0.82 c-4.06,2.25-7.7,5.06-10.46,8.26c-2.99,3.46-4.96,7.38-5.36,11.52c-0.4,4.18,0.78,8.53,4.11,12.81 c3.99,5.12,11.09,10.17,22.3,14.68c0.64,0.26,1.36-0.05,1.61-0.69c0.25-0.64-0.05-1.36-0.69-1.61 C16.65,54.28,9.89,49.51,6.15,44.71c-2.91-3.74-3.95-7.49-3.61-11.05c0.35-3.59,2.1-7.04,4.77-10.13 c2.63-3.05,6.14-5.74,10.07-7.87c16.31,22.08,49.86,66.45,68.11,90.13c3.87,5.02,7.03,9.09,9.18,11.79 c1.23,1.55,2.29,2.78,3.14,3.67c0.28,1.03,0.27,0.85,0.12,0.12c2.21,2.25,3.04,2.08,2.22-0.98c-0.02-0.07-0.04-0.14-0.07-0.2 c-0.05-0.11-0.11-0.24-0.2-0.38L34,8.07c0.14,0.05,0.28,0.11,0.43,0.18c3.61,1.6,7.87,5.65,12.3,9.87 C52.29,23.4,58.1,28.92,63.7,30.66c6.63,2.06,12.67-0.94,17.03-15c0.2-0.66-0.17-1.35-0.82-1.55c-0.66-0.2-1.35,0.17-1.55,0.82 c-3.81,12.26-8.69,14.99-13.93,13.36c-5.04-1.56-10.63-6.89-15.98-11.98c-4.59-4.37-9.01-8.58-13.01-10.35 c-1.11-0.49-2.18-0.81-3.21-0.91l-1.87-3.18c-0.08-0.13-0.16-0.25-0.25-0.37c-0.59-0.77-1.45-1.26-2.37-1.44 c-0.91-0.17-1.89-0.03-2.72,0.46c-0.03,0.02-0.05,0.03-0.08,0.05C24.83,0.65,24.73,0.71,24.64,0.78L24.64,0.78z M23.54,8.06 c-0.95,0.65-1.48,1.68-1.53,2.75c-1.32,0.5-2.62,1.06-3.89,1.67l-0.83-1.13c-0.23-0.31-0.29-0.68-0.22-1.05 c0.08-0.42,0.33-0.83,0.71-1.12l8.37-6.42c0.03-0.02,0.06-0.05,0.09-0.06l0.04-0.02c0.3-0.18,0.66-0.22,1-0.16 c0.34,0.06,0.65,0.24,0.85,0.5c0.03,0.04,0.06,0.08,0.08,0.13l1.3,2.2c-1.09,0.38-2.12,1.1-3.06,2.24 C25.5,7.31,24.43,7.45,23.54,8.06L23.54,8.06z M22.81,13.16c1.13,1.38,3.16,1.7,4.66,0.67c1.55-1.05,1.98-3.12,1.02-4.7 c0.74-0.79,1.55-1.25,2.41-1.43l58.18,98.68c-0.53-0.69-1.08-1.39-1.64-2.12C69.32,80.74,36.04,36.72,19.63,14.52 C20.67,14.03,21.73,13.57,22.81,13.16L22.81,13.16z" />
                                                        </g>
                                                    </svg>